Patient4_TMGait_0pt2_03_right_22_EMG.mot
version=1
nRows=36
nColumns=33
inDegrees=no
endheader
time	1LAddLong	2LGlutMax	3LGlutMed	4LIliopsoas	5LSemiMemb	6LBicFemLong	7LRecFem	8LVastMed	9LVastLat	10LGasMed	11LTibAnt	12lTibPost	13LPeroneusLong	14LSol	15LExtDigLong	16LFlexDigLong	17RAddLong	18RGlutMax	19RGlutMed	20RIliopsoas	21RSemiMemb	22RBicFemLong	23RRecFem	24RVastMed	25RVastLat	26RGasMed	27RTibAnt	28RTibPost	29RPeroneusLong	30RSol	31RExtDigLong	32RFlexDigLong
47.792	-0.010529	-0.056915	-0.083923	0.00885	-0.036316	0.050507	0.031281	0.004883	-0.004272	0.002899	0.045471	-0.00412	0.024567	0.002441	-0.028381	-0.002594	-0.003662	0.42435	0.16708	0.026398	0.25375	0.23025	-0.036316	0.10147	0.007477	0.033569	-0.068359	-0.008698	-0.4451	-0.029297	-0.000458	-0.007935
47.793	-0.012665	-0.058594	-0.10727	0.013885	-0.042419	-0.050964	0.03479	0.006561	0.004272	0.011902	0.042114	-0.009155	0.019531	-0.027466	-0.062561	0.00412	-0.007477	0.38773	0.034943	-0.002441	0.081635	0.19898	0.009613	0.034332	0.051575	0.024261	0.002289	0.003204	-0.39047	0.00473	-0.004578	-0.005646
47.794	-0.001678	-0.11826	-0.12207	0.004272	0.008545	-0.077667	0.024414	0.009003	0.005951	0.012665	-0.029144	0.009003	0.039673	0.002289	-0.10422	-0.00412	-0.024414	0.34912	0.097809	0.007629	0.087433	0.036316	-0.012665	0.054474	0.038605	-0.038605	-0.052032	-0.012817	0.1416	0.032196	-0.001984	-0.005188
47.795	0.005188	-0.12528	-0.087891	0.020294	0.05722	-0.081177	0.02655	0.011597	0.007324	0.031586	-0.098724	0.010223	-0.023499	0.009003	0.11261	-0.010071	-0.009766	0.27634	0.30777	0.016785	-0.031128	-0.08728	0.002441	-0.021667	0.006409	-0.10834	0.002899	-0.20233	-0.55405	0.018616	-0.010223	-0.009766
47.796	0.006714	-0.13092	-0.064697	-0.012207	0.026855	-0.024719	0.028381	0.009308	-0.00061	0.045013	-0.16174	0.00885	-0.033569	0.030518	0.36255	-0.000458	0.028076	0.2092	0.54977	-0.006866	0.038757	-0.31403	-0.047455	-0.019531	0.038452	-0.082397	0.016022	-0.013733	-0.62424	-0.044403	-0.00412	-0.016632
47.797	0.002289	-0.080109	-0.062408	-0.00473	0.014954	-0.085907	0.016174	0.000153	0.009308	0.038147	-0.17746	0.003967	-0.059662	0.052338	0.55512	-0.008392	0.000305	0.14786	0.31326	-0.056152	0.34347	-0.34225	-0.041199	0.010681	0.015259	0.072021	-0.079651	0.15488	-0.36133	-0.16052	-0.001984	-0.003052
47.798	0.003357	-0.083466	-0.083466	-0.007629	-0.01358	-0.11231	-0.016785	-0.000458	0.012665	0.016937	-0.19089	0.002747	-0.045929	0.056915	0.006561	-0.004272	-0.003204	0.10727	0.14175	-0.081635	0.30624	-0.44083	0.024872	-0.089264	-0.008698	0.090332	-0.10056	0.13107	-0.87921	-0.35263	-0.002747	-0.00885
47.799	0.002899	-0.076141	-0.093079	-0.000458	-0.039215	-0.071869	-0.007172	0.001373	0.020294	-0.010376	0.009308	0.007782	0.005493	0.055542	0.01297	-0.00061	-0.021667	-0.017853	0.18555	-0.048218	0.028229	-0.25971	0.063324	-0.16815	-0.049286	0.002594	-0.044098	0.084991	-0.73578	-0.6369	0.005035	-0.011139
47.8	0.007935	-0.112	-0.088196	0.002441	-0.043793	-0.098419	0.000153	-0.001068	-0.000916	-0.018005	0.2652	0.006256	-0.015259	0.11429	0.3009	0.004425	-0.035095	-0.037079	0.097198	-0.003357	-0.12528	-0.22293	0.12878	-0.14465	-0.088196	-0.018616	0.04715	-0.16632	-0.6517	-0.36179	-0.00061	-0.011139
47.801	0.004425	-0.10712	-0.090027	0.006409	0.018616	-0.077209	0.018921	0.005646	-0.024261	-0.032043	0.42328	0.013123	-0.00824	0.15503	-0.19257	0.005341	-0.060577	-0.11017	0.014801	-0.039978	-0.16968	-0.31525	0.12466	0.1326	-0.065308	0.036163	0.010071	-0.12009	1.5923	-0.081329	-0.00061	-0.006866
47.802	-0.007935	-0.065155	-0.081024	0.024872	0.06012	-0.0354	0.02182	0.008392	-0.024109	-0.005341	0.43137	0.00473	0.026245	0.075836	-0.56656	-0.000305	-0.049133	-0.16403	-0.11673	-0.10986	-0.001373	-0.40283	0.13962	0.27664	0.007477	0.021057	-0.024261	0.11307	1.1633	-0.06012	-0.001221	-0.007935
47.803	-0.010223	-0.021362	-0.015106	0.021515	-0.028381	0.034485	0.012207	0.009003	-0.022583	0.00412	0.06134	0.008392	0.11551	0.013885	-0.65933	0.005493	-0.027313	-0.17929	-0.066681	-0.13519	0.00412	-0.027161	0.15167	0.20935	-0.034637	0.020447	0.15625	0.065765	0.23651	0.27771	-0.007019	-0.007935
47.804	-0.019379	-0.055847	0.019073	0.02121	-0.12772	0.10284	0.001678	0.008392	-0.015259	0.009308	0.13748	0.001373	0.084839	-0.044861	-0.26901	-0.001373	-0.012054	-0.2507	-0.051422	-0.12268	0.004425	0.26642	0.19974	0.12405	-0.095367	0.015411	0.2327	0.09964	0.51956	0.50232	-0.008545	-0.007172
47.805	0.001984	-0.014648	-0.03479	-0.015869	-0.18814	0.072784	0.00061	0.011597	-0.008392	0.013275	-0.001678	0.012512	0.098114	-0.082397	-0.33966	-0.012665	0.000763	-0.3183	0.006256	0.047455	-0.010223	0.21133	0.16815	0.098114	-0.067444	0.03418	0.099335	0.076294	0.13702	0.40588	-0.001831	-0.003815
47.806	0.007935	0.003357	-0.063934	-0.014648	-0.076752	-0.01236	-0.009613	0.005646	-0.008545	0.009308	-0.20981	0.005798	0.049896	-0.049744	-0.24475	0.002747	-0.010834	-0.23544	0.094452	0.27588	0.004272	0.33737	-0.11215	-0.022125	0.069733	0.042267	-0.10803	-0.10727	0.62317	0.47897	-0.002289	0.005493
47.807	0.022888	0.010223	-0.057526	-0.002441	0.12711	-0.029755	-0.032349	-0.000916	-0.010376	0.046997	-0.13458	0.009918	0.005646	-0.046234	0.27115	-0.006561	0.000763	-0.26001	0.11856	0.35797	-0.015259	0.46677	-0.073547	-0.10788	0.1207	0.031433	-0.050201	0.00061	-0.016022	0.17929	-0.002899	-0.004578
47.808	0.021667	0.033264	-0.054779	0.005035	0.19379	-0.006714	-0.036774	0.00351	-0.010376	0.032349	-0.1236	0.006866	0.027008	-0.060883	0.18097	-0.011597	-0.000916	-0.28992	0.12161	0.22919	-0.07019	0.19928	0.031891	-0.22812	0.053711	0.019531	-0.008392	0.1294	-0.17014	0.12756	0.00061	0.000458
47.809	0.009155	0.026245	-0.035706	0.007019	0.12833	0.085144	-0.023956	0.001373	-0.007782	0.0177	-0.10208	0.011902	-0.018616	-0.061646	0.31067	0.007477	0.00473	-0.34851	0.023956	0.10162	-0.050812	0.026398	-0.006866	-0.23239	-0.0177	0.029297	0.033722	0.071869	-0.30655	0.18387	-0.007629	-0.000458
47.81	0.016785	0.031281	-0.024261	0.013123	0.076141	0.053253	-0.039368	0.005188	-0.001984	-0.011902	-0.1033	0.010681	-0.014191	-0.018311	0.24704	0.022278	0.007935	-0.40512	-0.13718	0.011139	0.040894	0.024109	0.032806	-0.26169	-0.024109	0.017853	-0.16312	0.026093	0.64712	0.11017	-0.001831	-0.006561
47.811	0.004425	0.07431	-0.053253	0.007935	0.035095	0.056152	-0.036163	0.002747	-0.006561	-0.015259	-0.071716	0.010071	0.026398	0.044708	0.14893	-0.015106	-0.003357	-0.40817	0.046692	-0.046844	0.074158	-0.12344	-0.032959	-0.19409	-0.030212	0.020294	-0.18021	0.009308	0.49866	0.041962	-0.001831	-0.004578
47.812	-0.003357	0.081329	-0.039215	0.005341	0.042725	0.072327	-0.048065	0.001526	0.010681	-0.021057	-0.017853	0.007019	0.010986	0.037384	0.13489	-0.055237	0.015564	-0.34821	0.37735	-0.026855	0.074768	-0.21225	-0.075226	-0.16266	-0.055695	0.00946	-0.036011	-0.003967	-0.73959	-0.031891	-0.006714	-0.007477
47.813	-0.003815	0.10254	-0.035858	-0.000916	0.028992	0.094147	-0.059204	0.003662	0.010986	-0.027161	-0.000153	0.005646	-0.005035	-0.042114	-0.078125	-0.056915	0.002441	-0.36713	0.16251	-0.038757	-0.08728	-0.11246	-0.10376	0.25681	-0.015564	0.011292	-0.018616	-0.013275	-0.60959	-0.05722	-0.003357	-0.006714
47.814	-0.002136	0.14969	-0.038605	-0.00351	-0.000458	0.12161	-0.063629	0.001831	0.016022	0.030212	-0.00946	0.005341	0.005188	-0.041199	-0.25101	-0.024719	-0.020294	-0.35904	0.003815	-0.032043	-0.31662	0.091858	-0.074615	0.16998	-0.016327	0.024414	-0.093536	-0.018463	1.8388	-0.15366	0.001221	-0.00885
47.815	0.008392	0.056152	-0.042267	0.003357	-0.032806	0.086975	-0.075531	0.002289	0.027771	0.067291	-0.018616	0.003204	-0.013275	-0.09201	-0.13062	-0.005951	0.009918	-0.36423	-0.095367	-0.026093	-0.084686	0.23041	-0.039673	0.067902	0.012512	0.033722	-0.20462	-0.025024	1.6441	-0.1915	-0.002289	-0.005035
47.816	0.007172	0.046997	-0.040741	-0.000305	-0.041046	-0.016632	-0.089874	0.004883	0.012054	0.042419	-0.025177	0.004578	-0.008545	-0.085602	-0.007782	-0.90973	0.021515	-0.36285	0.00946	-0.035553	0.005646	0.30807	-0.072784	-0.042877	0.044403	0.031281	-0.1622	-0.022125	0.16724	-0.05722	0	-0.007629
47.817	0.003204	0.050049	-0.058746	-0.00473	-0.075836	-0.045471	-0.066986	0.002136	0.021667	0.042267	-0.010834	0.005035	-0.024567	0.010071	0.054016	0.99472	0.022583	-0.36179	0.20462	-0.020447	0.018463	0.22842	-0.035858	-0.028381	0.061493	0.007935	0.012665	-0.020294	-0.95962	0.059662	-0.003357	-0.005646
47.818	0.006561	0.072479	-0.067749	-0.003357	-0.054474	0.005646	-0.081329	-0.001068	0.016479	0.046539	-0.014191	-0.00412	-0.024261	0.11063	0.063629	0.088654	0.001373	-0.36026	0.031738	-0.005646	-0.066528	0.23148	-0.059357	0.031891	0.1033	-0.012207	0.087128	-0.025482	-0.77194	0.0383	-0.000763	-0.005951
47.819	0.012512	0.076447	-0.074921	-0.001526	-0.020905	0.001373	-0.06546	-0.002747	0.016937	0.033417	-0.001221	0.000763	-0.018158	0.034485	0.084839	-0.03479	-0.033875	-0.35797	0.00946	-0.02533	-0.11017	0.11505	-0.039215	-0.031586	0.063019	-0.06958	-0.00885	-0.019531	-0.92117	-0.1944	-0.00061	-0.009308
47.82	0.018768	0.11658	-0.060272	-0.004883	0.049438	0.024261	-0.058441	-0.00412	0.015717	0.026398	-0.003357	-0.00824	-0.00473	0.00473	0.09552	0.19638	-0.033264	-0.33707	-0.12482	-0.02182	-0.13534	0.00412	-0.046692	-0.068665	0.038605	-0.10117	0.039825	-0.015411	-0.4274	-0.080414	0.000763	-0.007629
47.821	0.025635	0.097656	-0.016632	0.008698	0.063019	0.00412	-0.075378	0.008545	-0.006256	0.021057	-0.000458	0.00412	0.010529	-0.027924	0.054016	0.12772	-0.018463	-0.32242	0.22385	-0.028992	-0.068817	-0.10239	-0.057983	-0.039978	0.01297	-0.077362	0.13977	-0.012207	-0.82932	-0.072327	0.005798	-0.003357
47.822	0.030212	0.090332	-0.030365	-0.003662	0.079956	-0.076447	-0.04837	0.001831	0.01236	0.019531	-0.005646	-0.002441	-0.00412	-0.08667	0.030823	-0.3392	-0.002899	-0.27023	0.31311	-0.038605	-0.051575	-0.19241	-0.044556	0.056305	0.038605	-0.063477	0.13702	-0.016785	-0.88654	-0.17441	-0.001831	0.005035
47.823	0.019836	0.097198	-0.034943	-0.009766	0.072174	-0.014343	-0.040283	0.006104	0.006714	0.019531	-0.013885	0.006714	-0.017395	-0.12604	0.046387	0.075073	-0.000916	-0.24506	0.25314	-0.083618	-0.12451	-0.26672	-0.00946	0.079956	0.067444	-0.022888	-0.00824	-0.028076	0.43533	-0.098267	-0.003662	0.000305
47.824	0.005188	0.088654	-0.035858	-0.000305	0.040436	0.078583	-0.033112	0.005341	-0.02182	0.023499	-0.005035	0.009613	-0.025177	-0.1239	0.070648	0.000305	-0.009613	-0.25589	0.36057	-0.076752	-0.2652	-0.17731	-0.047607	0.08316	0.06546	-0.038147	-0.06073	-0.036774	0.3421	0.068207	-0.000305	0.004272
47.825	-0.004272	0.12558	-0.028534	0.00824	-0.008392	0.050201	-0.015106	0.016479	-0.012665	0.032043	0.001068	0.005341	-0.03006	-0.012207	0.082092	-0.049744	0.014343	-0.19119	0.1973	-0.004883	-0.28549	-0.20828	-0.05722	0.24231	0.065613	-0.18707	-0.027313	-0.045319	0.099792	0.058594	-0.005188	0.002289
47.826	-0.003967	0.10712	-0.070496	0.005493	-0.079651	0.077667	-0.016174	-0.010376	-0.012665	0.027771	0.002899	0.005951	-0.028076	0.045624	0.079346	-0.018768	0.032043	-0.19257	0.085144	0.077972	-0.11017	-0.15808	0.035248	0.24994	0.04715	-0.12024	-0.090942	-0.045776	0.85648	0.086975	0.001221	-0.00061
47.827	-0.004272	0.12482	-0.076752	0.011902	-0.096893	0.095215	-0.044708	-0.00351	0.002594	0.019684	0.010986	0.009155	-0.027924	0.032501	0.064697	-0.008698	-0.002747	-0.28153	0.017853	0.068054	0.10986	-0.10193	0.062561	0.12848	0.041809	0.072632	-0.12528	-0.019989	1.0823	0.15305	-0.003662	0.000153
